<svg width="120" height="120" viewBox="0 0 120 120" fill="none" xmlns="http://www.w3.org/2000/svg">
<path d="M60.0001 11C48.1275 11.0005 36.6425 15.2256 27.6 22.9192C18.5575 30.6129 12.5476 41.2731 10.6458 52.9924C8.74396 64.7117 11.0742 76.7254 17.2196 86.8838C23.365 97.0422 32.9246 104.682 44.1877 108.437C46.6877 108.875 47.6252 107.375 47.6252 106.062C47.6252 104.875 47.5627 100.937 47.5627 96.75C35.0001 99.0624 31.7501 93.6876 30.7501 90.8751C29.6405 88.1398 27.8815 85.7157 25.6251 83.8125C23.8751 82.875 21.3751 80.5625 25.5626 80.5001C27.1615 80.6736 28.6951 81.23 30.0333 82.1221C31.3715 83.0142 32.475 84.2158 33.2501 85.6249C33.934 86.8534 34.8535 87.9349 35.9561 88.8074C37.0586 89.6799 38.3225 90.3263 39.6753 90.7095C41.0281 91.0927 42.4432 91.2052 43.8395 91.0405C45.2359 90.8759 46.586 90.4373 47.8125 89.75C48.029 87.2081 49.1618 84.8315 51.0001 83.0626C39.8751 81.8126 28.2501 77.4999 28.2501 58.3751C28.1799 53.4059 30.0136 48.598 33.3751 44.9376C31.8465 40.6187 32.0254 35.8791 33.8751 31.6877C33.8751 31.6877 38.0625 30.3751 47.6251 36.8126C55.8066 34.5625 64.4437 34.5625 72.6251 36.8126C82.1875 30.3126 86.3751 31.6877 86.3751 31.6877C88.2251 35.879 88.404 40.6188 86.8751 44.9376C90.2468 48.5918 92.0821 53.4038 92.0001 58.3751C92.0001 77.5625 80.3125 81.8126 69.1876 83.0626C70.3809 84.2721 71.2999 85.7241 71.8822 87.3202C72.4646 88.9163 72.6966 90.6189 72.5626 92.3126C72.5626 99.0002 72.5001 104.375 72.5001 106.063C72.5001 107.375 73.4376 108.938 75.9376 108.438C87.1809 104.652 96.713 96.9938 102.832 86.8302C108.951 76.6666 111.26 64.6591 109.345 52.9512C107.43 41.2432 101.416 30.5969 92.3775 22.9126C83.3389 15.2283 71.8637 11.0062 60.0001 11Z" fill="white"/>
</svg>
