<svg width="120" height="120" viewBox="0 0 120 120" fill="none" xmlns="http://www.w3.org/2000/svg">
<path d="M71.6813 7.21866C71.4281 7.25616 71.175 7.33116 70.9313 7.44366C68.8688 8.46553 66.525 11.503 66.075 12.103C66.0469 12.1405 66.0188 12.178 66 12.2155C63.6844 15.6843 62.4469 19.7437 62.4 23.9718C62.3719 27.1405 62.9906 30.2812 64.2469 33.3093C67.1719 40.3312 73.2469 46.1437 80.475 48.8624C80.7188 48.9468 80.9531 49.0312 81.375 49.1812C81.4125 49.1999 81.7688 49.3124 81.825 49.3218L82.0875 49.4155C82.4625 49.5374 82.8469 49.6593 83.2219 49.7343C85.125 50.1187 86.9813 50.3343 88.725 50.3905C89.025 50.3905 89.325 50.3999 89.625 50.3999C102.778 50.3999 107.878 41.1187 109.575 38.0249C109.744 37.7249 109.866 37.4812 109.978 37.3312C109.978 37.3218 109.978 37.3218 109.988 37.3124C110.728 36.2155 110.447 34.7249 109.35 33.9749C108.263 33.2343 106.772 33.5155 106.022 34.6124H106.013C102.506 39.778 96.5063 41.3437 88.1906 39.2812C87.5719 39.1312 86.8969 38.8968 86.2969 38.6718C85.5094 38.3905 84.7219 38.0624 83.9906 37.7062C82.5375 36.9843 81.1688 36.1218 79.9313 35.1655C72.6188 29.4937 69.7594 17.6905 74.0344 10.8749C74.6063 9.96553 74.5031 8.78428 73.7813 7.98741C73.2375 7.38741 72.45 7.11553 71.6813 7.21866ZM50.4188 11.9999C49.875 11.9905 49.3219 12.1687 48.8719 12.5437C45.2438 15.4968 41.5313 20.3343 41.3719 20.5312C41.3531 20.5687 41.3344 20.5968 41.3063 20.6343C34.7438 30.1874 34.2469 43.7812 40.05 55.2655C40.9594 57.0843 41.9906 58.8187 43.0875 60.4124L43.4156 60.8812C44.3438 62.2405 45.3844 63.778 46.7156 64.978C47.175 65.503 47.6719 66.0093 48.1594 66.4968L48.3938 66.7405L48.5906 66.9374C49.0875 67.4155 49.5938 67.903 50.1188 68.3718H50.1281C50.1656 68.428 50.2219 68.4655 50.2688 68.5124C50.8594 69.0374 51.4594 69.5343 52.2563 70.1624L52.4719 70.3218C53.0906 70.8187 53.7188 71.2874 54.3656 71.7468C54.4313 71.7937 54.4969 71.8405 54.5625 71.8874C54.7875 72.0374 55.0125 72.178 55.2375 72.3374L55.4625 72.4874L55.725 72.6562C56.2031 72.9749 56.6719 73.2655 57.3375 73.6499C57.7688 73.9124 58.2281 74.1749 58.5281 74.3249C58.6594 74.3999 58.8 74.4749 59.1281 74.653L59.8594 75.0374C59.8969 75.0562 60.0656 75.1312 60.1031 75.1499C60.5813 75.3937 61.0781 75.628 61.575 75.853L62.3344 76.1905C62.8313 76.4062 63.3375 76.6124 63.9563 76.8468L64.2375 76.9499C64.2563 76.9687 64.4906 77.053 64.5094 77.0624C64.9594 77.2218 65.4188 77.3812 65.8781 77.5312L66.9281 77.878C67.4531 78.0562 68.0625 78.2624 68.7281 78.3749C72 78.9187 75.1781 79.1999 78.1875 79.1999C78.5438 79.1999 78.9 79.1905 79.2469 79.1905C105.741 78.6093 112.631 56.0999 112.697 55.8749C113.025 54.7405 112.491 53.5312 111.422 53.0249C110.353 52.5187 109.078 52.8749 108.413 53.8499C101.7 63.6562 89.0063 67.7999 76.0781 64.3874C75.4781 64.2374 74.8969 64.0687 74.175 63.8343C74.0531 63.7968 73.95 63.7593 73.7531 63.6843C73.3313 63.553 72.9188 63.4124 72.45 63.2343L71.7844 62.9812C71.4 62.8312 71.0156 62.6812 70.5469 62.4749L70.2375 62.3343C69.6656 62.0905 69.1125 61.8187 68.6156 61.5749L67.2469 60.8624C66.9375 60.7124 66.6656 60.5437 66.2438 60.2905L66.0094 60.1593L65.775 60.0187C65.4281 59.8124 65.0813 59.5968 64.7625 59.3718L64.5375 59.2312C64.5188 59.2218 64.3313 59.0905 64.3125 59.0718C64.0313 58.8937 63.7594 58.7155 63.4969 58.5468C62.9156 58.1343 62.3438 57.703 61.6781 57.178L61.4156 56.9624C55.2281 52.0218 50.6531 45.4218 48.5063 38.3437C46.5094 31.8468 47.9906 23.3437 52.4719 15.5999C53.0531 14.5968 52.8375 13.3218 51.9469 12.5718C51.5063 12.1968 50.9625 11.9999 50.4188 11.9999ZM24.0094 19.1999C23.4375 19.1999 22.8563 19.4062 22.3969 19.8187C17.8125 23.9343 14.3813 29.2687 14.0063 29.878C4.20002 44.1562 6.09377 66.3468 12.825 79.9124C12.9563 80.1937 13.0969 80.4655 13.2375 80.7374L13.3313 80.8874C13.4531 81.1593 13.5938 81.4405 13.6406 81.4968C13.7156 81.6749 13.8281 81.8718 13.875 81.928C13.9875 82.1624 14.1 82.3687 14.3063 82.7249L15.075 84.0468C15.1875 84.2249 15.3 84.4124 15.3375 84.478C15.4875 84.7218 15.6469 84.9749 15.8063 85.228L16.1813 85.828C16.2938 86.0062 16.4063 86.1655 16.4813 86.2593C16.8563 86.8405 17.2313 87.4218 17.6438 87.9749C17.6625 88.003 17.6813 88.0218 17.7 88.0405L17.85 88.2468C18.1875 88.7343 18.5344 89.203 18.8438 89.5874L20.2125 91.3218C20.2313 91.3405 20.3813 91.5187 20.3906 91.5374L20.5875 91.7624C21 92.2687 21.4406 92.7749 21.8813 93.2624C21.9469 93.3374 22.0125 93.403 22.0781 93.478C22.5 93.9374 22.9313 94.3968 23.3813 94.8749L23.8125 95.2874C24.1688 95.6624 24.525 96.028 24.9 96.3749C24.9 96.3843 25.0781 96.553 25.0781 96.553L25.4531 96.8999C25.9031 97.3312 26.3719 97.7624 26.7281 98.0624C26.7469 98.0905 27.0844 98.3812 27.1125 98.3999C27.5531 98.7937 27.9938 99.1687 28.4438 99.5343L30.7406 101.353C31.125 101.634 31.5188 101.916 31.9688 102.244C32.1188 102.356 32.2781 102.469 32.4375 102.572C32.5031 102.628 32.5781 102.684 32.625 102.712L34.35 103.866C34.9781 104.278 35.6063 104.662 36.375 105.122L36.7875 105.356C37.2656 105.637 37.7531 105.919 38.2125 106.162C38.4844 106.312 38.7563 106.444 38.9906 106.566C39.3188 106.744 39.675 106.941 40.2188 107.203C40.2656 107.231 40.65 107.419 40.6969 107.437C41.2406 107.709 41.7938 107.962 42.4875 108.272C42.4875 108.281 42.7125 108.384 42.7125 108.384C43.35 108.656 43.9688 108.919 44.7844 109.247C44.9156 109.303 45.0469 109.35 45.075 109.359C45.6563 109.584 46.2656 109.809 46.7625 109.987C46.8094 110.006 47.0625 110.109 47.1094 110.128C47.775 110.353 48.4313 110.569 49.275 110.831C49.4156 110.878 49.5656 110.925 49.5844 110.925L50.0625 111.075C50.6438 111.253 51.225 111.441 51.8531 111.562C56.3156 112.378 60.675 112.8 64.8 112.8H64.8094C99.1875 112.8 110.138 85.1343 110.25 84.853C110.672 83.7374 110.213 82.4812 109.163 81.8999C108.131 81.328 106.819 81.5999 106.088 82.5468C97.2656 94.1624 80.625 98.4749 61.575 94.0968C61.1156 93.9843 60.6469 93.853 60.1875 93.7124L59.2875 93.4405C58.6781 93.253 58.0688 93.0468 57.4781 92.8405C57.4688 92.8405 57.1969 92.7374 57.1969 92.7374C56.6719 92.5593 56.1469 92.353 55.6875 92.1749L55.1625 91.9687C54.5813 91.7343 54 91.4905 53.4375 91.2374L53.1094 91.0968C52.6031 90.8624 52.1156 90.6374 51.6281 90.3937C51.5906 90.3749 51.2063 90.1874 51.1688 90.178C50.8313 90.0093 50.4938 89.8312 50.0625 89.5968L48.1031 88.5468C47.9063 88.4155 47.7 88.2937 47.5031 88.1905C46.9125 87.8249 46.3031 87.4593 45.7031 87.0749C45.5625 86.9905 45.4406 86.8968 45.2063 86.7374C44.7938 86.4749 44.3906 86.203 43.8 85.7905L43.5656 85.6218C43.1625 85.3405 42.7688 85.0405 42.4406 84.7968C42.2344 84.6468 42.0281 84.478 41.6906 84.2249C41.3906 83.9905 41.0906 83.7655 40.8094 83.5405L40.2844 83.1093C39.8438 82.753 39.4313 82.378 39 82.0124C38.9438 81.9562 38.8969 81.9187 38.8313 81.8718C38.3531 81.4312 37.8656 80.9905 37.2844 80.4374L35.5875 78.7499C35.175 78.328 34.7625 77.8968 34.2938 77.3812C33.8625 76.903 33.45 76.4249 32.8969 75.7687L31.8844 74.5312C31.7625 74.353 31.6313 74.1749 31.4719 73.9874C31.125 73.5187 30.7781 73.0593 30.4313 72.5718C21.0938 59.7093 18.6563 32.8593 25.9313 23.0249C26.6625 22.0405 26.5313 20.653 25.6125 19.8187C25.1625 19.4062 24.5813 19.1999 24.0094 19.1999Z" fill="white"/>
</svg>
