<svg width="120" height="120" viewBox="0 0 120 120" fill="none" xmlns="http://www.w3.org/2000/svg">
<path d="M98.8145 66.4667C95.042 66.4833 91.775 67.3929 89.0469 68.7403C88.0531 66.7357 87.0256 64.9845 86.8571 63.671C86.6556 62.1382 86.4362 61.2291 86.6722 59.4103C86.9082 57.5911 87.9688 55.0144 87.9521 54.8295C87.9355 54.6443 87.7163 53.7178 85.5439 53.701C83.3715 53.6843 81.5024 54.1219 81.2832 54.6945C81.0638 55.2671 80.6434 56.5641 80.3907 57.9113C80.0033 59.8817 76.0454 66.9214 73.8055 70.5926C73.0646 69.1615 72.4417 67.898 72.3066 66.8876C72.1046 65.3548 71.8857 64.4457 72.1215 62.6269C72.3573 60.8077 73.4181 58.231 73.4012 58.046C73.3843 57.8609 73.1654 56.9344 70.9932 56.9175C68.8206 56.9009 66.9516 57.3385 66.7323 57.9113C66.5134 58.4836 66.2776 59.831 65.8398 61.1283C65.4022 62.4244 60.1306 74.1457 58.7497 77.1942C58.0421 78.7432 57.4363 79.9896 56.9982 80.832C56.9312 80.9665 56.8806 81.0509 56.8468 81.1184C56.8972 81.0342 56.9312 80.9496 56.9312 80.9839C56.5606 81.7076 56.3415 82.1119 56.3415 82.1119V82.1285C56.0551 82.6674 55.7352 83.1556 55.5838 83.1556C55.4825 83.1556 55.2638 81.7413 55.6344 79.8045C56.4256 75.7289 58.295 69.3973 58.2781 69.1779C58.2613 69.06 58.6316 67.9655 57.0486 67.3758C55.5163 66.8201 54.9603 67.7466 54.8258 67.7466C54.6913 67.7466 54.59 68.0836 54.59 68.0836C54.59 68.0836 56.2911 60.9429 51.3228 60.9429C48.2242 60.9429 43.9131 64.3451 41.7913 67.4269C40.4607 68.1511 37.5807 69.7172 34.5495 71.3843C33.3875 72.0244 32.1917 72.6809 31.0634 73.3043C30.9793 73.2197 30.9118 73.1356 30.8277 73.0514C24.7986 66.6185 13.6667 62.0714 14.1385 53.4317C14.3068 50.2824 15.4016 42.0139 35.5433 31.9765C52.0475 23.7582 65.2506 26.0149 67.5245 31.0334C70.7912 38.191 60.4677 51.5121 43.3238 53.4317C36.7895 54.1559 33.3542 51.6298 32.4952 50.6869C31.6025 49.6934 31.4677 49.6425 31.1309 49.8279C30.575 50.131 30.9289 51.0068 31.1309 51.5288C31.6363 52.8591 33.7412 55.2169 37.3285 56.3958C40.4774 57.4231 48.1402 57.9959 57.4025 54.4085C67.8102 50.4003 75.9109 39.2346 73.5362 29.8882C71.1113 20.3902 55.3651 17.2744 40.4609 22.5624C31.5859 25.7117 21.9866 30.6631 15.0817 37.1128C6.88017 44.7926 5.56673 51.4781 6.10533 54.274C8.02533 64.193 21.6999 70.6601 27.1733 75.4428C26.9038 75.5944 26.6511 75.7292 26.4156 75.8639C23.6706 77.2278 13.246 82.6842 10.6356 88.4445C7.68876 94.9786 11.1238 99.66 13.3806 100.3C20.42 102.254 27.628 98.734 31.5015 92.9574C35.3745 87.1812 34.9032 79.6364 33.1182 76.2007C33.1011 76.1503 33.0676 76.1171 33.0509 76.066C33.7581 75.6453 34.482 75.2241 35.2065 74.8032C36.6041 73.9779 37.9684 73.2197 39.1639 72.5635C38.4901 74.3824 38.0019 76.5708 37.7492 79.7374C37.4462 83.4422 38.9788 88.242 40.966 90.1282C41.8414 90.9535 42.9024 90.9706 43.5594 90.9706C45.8834 90.9706 46.9274 89.0503 48.0894 86.76C49.5209 83.9639 50.784 80.7136 50.784 80.7136C50.784 80.7136 49.201 89.5053 53.529 89.5053C55.112 89.5053 56.6954 87.4674 57.4023 86.4232V86.4399C57.4023 86.4399 57.4363 86.3728 57.5204 86.2383C57.6887 85.9854 57.7728 85.8338 57.7728 85.8338V85.7829C58.4127 84.6884 59.8107 82.1789 61.9154 78.0364C64.644 72.6807 67.254 65.9946 67.254 65.9946C67.254 65.9946 67.4898 67.6287 68.2986 70.3399C68.7699 71.9398 69.7634 73.6913 70.5549 75.3924C69.9153 76.268 69.5277 76.7733 69.5277 76.7733C69.5277 76.7733 69.5277 76.7899 69.5441 76.8068C69.039 77.4809 68.4667 78.2051 67.8772 78.9124C65.7214 81.4721 63.1616 84.4027 62.825 85.2446C62.4205 86.2383 62.5217 86.9787 63.2966 87.5517C63.8689 87.9898 64.8795 88.0568 65.9403 87.9729C67.8772 87.8377 69.2413 87.3666 69.898 87.0628C70.9419 86.693 72.1548 86.1031 73.2999 85.2781C75.4051 83.7291 76.6852 81.506 76.5669 78.5756C76.4996 76.9589 75.9772 75.342 75.3373 73.8267C75.5227 73.557 75.725 73.2703 75.9102 72.9846C79.2451 68.1169 81.8216 62.779 81.8216 62.779C81.8216 62.779 82.0574 64.4121 82.8655 67.1236C83.2698 68.4879 84.0613 69.9867 84.7852 71.4516C81.6528 73.9948 79.7164 76.9423 79.0426 78.8785C77.7962 82.4658 78.7731 84.0821 80.6087 84.4533C81.4339 84.6216 82.6128 84.2339 83.4887 83.8634C84.5832 83.4928 85.8969 82.9034 87.1262 81.994C89.2313 80.445 91.2692 78.2721 91.1347 75.3251C91.0838 73.9946 90.7135 72.6642 90.2251 71.3843C92.8688 70.2731 96.305 69.6664 100.683 70.1719C110.064 71.2664 111.899 77.127 111.545 79.5687C111.192 82.0278 109.222 83.3752 108.565 83.7792C107.908 84.1835 107.706 84.3352 107.757 84.6382C107.841 85.076 108.144 85.0594 108.699 84.9579C109.475 84.8234 113.617 82.9706 113.802 78.4404C114.072 72.7144 108.565 66.4163 98.8145 66.4667ZM26.5166 90.8353C23.4181 94.2204 19.0731 95.5003 17.2039 94.4224C15.1998 93.2609 15.9913 88.2757 19.8142 84.6715C22.1382 82.4824 25.1359 80.4617 27.1231 79.2155C27.5778 78.9462 28.2348 78.5419 29.0431 78.0535C29.1779 77.9698 29.2452 77.9358 29.2452 77.9358C29.3966 77.8343 29.5651 77.7504 29.7336 77.6492C31.1309 82.7689 29.7838 87.282 26.5166 90.8353ZM49.1509 75.4428C48.073 78.0865 45.7993 84.8232 44.4188 84.4695C43.2399 84.1662 42.5155 79.0299 44.1831 73.9779C45.0249 71.4347 46.8099 68.4035 47.8712 67.2249C49.5718 65.3215 51.4412 64.7152 51.8792 65.4731C52.4684 66.4667 49.8242 73.7925 49.1509 75.4428ZM67.8439 84.3689C67.3895 84.6045 66.9683 84.7559 66.7663 84.638C66.6148 84.5539 66.9517 84.2337 66.9517 84.2337C66.9517 84.2337 69.2921 81.7245 70.2186 80.5789C70.7574 79.9055 71.3804 79.1138 72.0542 78.2384C72.0542 78.3221 72.0706 78.4069 72.0706 78.5074C72.0545 81.5224 69.1578 83.5606 67.8439 84.3689ZM82.2601 81.0846C81.9233 80.8489 81.9734 80.0574 83.102 77.5983C83.54 76.6383 84.5506 75.0218 86.3017 73.4724C86.5039 74.1122 86.6216 74.7183 86.6216 75.2909C86.6045 79.0803 83.8934 80.4949 82.2601 81.0846Z" fill="white"/>
</svg>
