<svg width="120" height="120" viewBox="0 0 120 120" fill="none" xmlns="http://www.w3.org/2000/svg">
<path d="M105.011 16.8213C104.542 16.2519 103.953 15.7933 103.285 15.4784C102.618 15.1635 101.889 15.0001 101.151 15H31.1513C29.8252 15 28.5534 15.5268 27.6157 16.4645C26.678 17.4021 26.1513 18.6739 26.1513 20C26.1513 21.3261 26.678 22.5979 27.6157 23.5355C28.5534 24.4732 29.8252 25 31.1513 25H95.0819L91.1772 45H26.1513C24.8252 45 23.5534 45.5268 22.6157 46.4645C21.678 47.4021 21.1513 48.6739 21.1513 50C21.1513 51.3261 21.678 52.5979 22.6157 53.5355C23.5534 54.4732 24.8252 55 26.1513 55H89.225L83.412 84.7754L51.7958 94.7583L24.745 86.2622L25.7631 80.9375C26.0117 79.6347 25.7326 78.2865 24.9873 77.1895C24.2419 76.0925 23.0912 75.3365 21.7885 75.0879C20.4857 74.8393 19.1375 75.1183 18.0405 75.8637C16.9435 76.6091 16.1875 77.7597 15.9389 79.0625L14.0883 88.7622C13.859 89.9665 14.0799 91.2131 14.7091 92.2653C15.3383 93.3175 16.3319 94.102 17.5013 94.47L50.3017 104.771C51.2801 105.077 52.3291 105.076 53.307 104.768L89.2567 93.4181C90.1136 93.1469 90.8817 92.6499 91.4801 91.9792C92.0786 91.3086 92.4853 90.4892 92.6576 89.607L106.059 20.9571C106.2 20.2331 106.179 19.4869 105.998 18.7719C105.817 18.0569 105.48 17.3908 105.011 16.8213Z" fill="white"/>
</svg>
