<svg width="120" height="120" viewBox="0 0 120 120" fill="none" xmlns="http://www.w3.org/2000/svg">
<path d="M112.303 53.0157L66.9844 7.69692C65.0625 5.76567 62.5312 4.80005 60 4.80005C57.4687 4.80005 54.9375 5.76567 53.0156 7.69692L44.0531 16.6594L55.1437 27.75C58.8281 25.5844 63.6281 26.0532 66.7875 29.2125C69.9469 32.3719 70.4062 37.1719 68.2406 40.8469L79.1437 51.75C82.8281 49.5844 87.6281 50.0532 90.7875 53.2125C94.5375 56.9625 94.5375 63.0375 90.7875 66.7875C87.0375 70.5375 80.9625 70.5375 77.2125 66.7875C74.0531 63.6282 73.5844 58.8282 75.75 55.1438L64.8469 44.2407C64.0687 44.7 63.2531 45.0375 62.4 45.2532V74.7375C66.5344 75.8063 69.6 79.5282 69.6 84C69.6 89.3063 65.3062 93.6 60 93.6C54.6937 93.6 50.4 89.3063 50.4 84C50.4 79.5282 53.4656 75.8063 57.6 74.7375V45.2532C55.9969 44.8407 54.4687 44.0438 53.2125 42.7875C50.0531 39.6282 49.5937 34.8282 51.7594 31.1532L40.6594 20.0532L7.69687 53.0157C3.83437 56.8688 3.83437 63.1313 7.69687 66.9844L53.0156 112.303C54.9375 114.234 57.4687 115.2 60 115.2C62.5312 115.2 65.0625 114.234 66.9844 112.303L112.303 66.9844C116.166 63.1313 116.166 56.8688 112.303 53.0157Z" fill="white"/>
</svg>
