<svg width="40" height="40" viewBox="0 0 40 40" fill="none" xmlns="http://www.w3.org/2000/svg">
<path d="M35.0037 5.6071C34.8473 5.41728 34.6508 5.26442 34.4284 5.15946C34.2059 5.0545 33.963 5.00005 33.717 5H10.3837C9.94169 5 9.51776 5.17559 9.2052 5.48816C8.89264 5.80072 8.71705 6.22464 8.71705 6.66667C8.71705 7.10869 8.89264 7.53262 9.2052 7.84518C9.51776 8.15774 9.94169 8.33333 10.3837 8.33333H31.6939L30.3924 15H8.71705C8.27502 15 7.8511 15.1756 7.53854 15.4882C7.22598 15.8007 7.05038 16.2246 7.05038 16.6667C7.05038 17.1087 7.22598 17.5326 7.53854 17.8452C7.8511 18.1577 8.27502 18.3333 8.71705 18.3333H29.7416L27.804 28.2585L17.2652 31.5861L8.2483 28.7541L8.58765 26.9792C8.67053 26.5449 8.57751 26.0955 8.32904 25.7298C8.08058 25.3642 7.69704 25.1122 7.26278 25.0293C6.82852 24.9464 6.37913 25.0394 6.01346 25.2879C5.64779 25.5364 5.39579 25.9199 5.31291 26.3542L4.69605 29.5874C4.61963 29.9888 4.69327 30.4044 4.90299 30.7551C5.11271 31.1058 5.44391 31.3673 5.83371 31.49L16.7672 34.9235C17.0933 35.0258 17.443 35.0255 17.769 34.9227L29.7522 31.1394C30.0378 31.049 30.2939 30.8833 30.4933 30.6597C30.6928 30.4362 30.8284 30.1631 30.8858 29.869L35.3528 6.98568C35.3999 6.74437 35.393 6.49563 35.3327 6.25729C35.2723 6.01896 35.16 5.79692 35.0037 5.6071V5.6071Z" fill="black"/>
</svg>
