<svg width="120" height="120" viewBox="0 0 120 120" fill="none" xmlns="http://www.w3.org/2000/svg">
<path d="M57.3114 10C41.6504 10 28.9082 28.119 28.9082 50.3943C28.9082 61.899 32.3306 72.26 37.7757 79.6083C37.366 81.8444 37.9634 84.1488 39.4143 85.8983C40.8652 87.6394 43.0244 88.655 45.2947 88.655C49.5193 88.655 52.9417 85.2326 52.9417 81.008C52.9417 76.7834 49.5193 73.361 45.2947 73.361C44.8765 73.361 44.4668 73.4037 44.0571 73.4719C40.1483 67.6513 37.6476 59.4069 37.6476 50.3943C37.6476 33.2312 46.6517 18.7394 57.3114 18.7394C66.3069 18.7394 74.1075 29.0919 76.3265 42.6364C79.4331 43.524 82.5312 44.7359 85.561 46.1953C84.0759 25.8829 71.9739 10 57.3114 10ZM54.0341 42.7729C49.8095 42.7729 46.3871 46.1953 46.3871 50.4199C46.3871 54.6446 49.8095 58.067 54.0341 58.067C56.9529 58.067 59.6157 56.4027 60.8959 53.7911C67.9967 53.3388 76.1985 55.5322 83.7772 60.0726C98.764 69.0595 106.915 84.7718 101.572 94.3903C99.8138 97.5481 96.6474 99.8183 92.4228 100.953C86.3291 102.575 78.8528 101.747 71.4959 98.7942C69.1574 100.962 66.5885 103.002 63.7892 104.879C71.0521 108.549 78.7418 110.495 85.8511 110.495C88.9321 110.495 91.9022 110.137 94.6845 109.394C101.248 107.627 106.274 103.906 109.21 98.632C117.045 84.5413 107.845 64.3143 88.275 52.5792C78.9552 46.9976 68.6368 44.4201 59.5731 45.1626C58.1307 43.6435 56.1336 42.7729 54.0341 42.7729ZM24.8884 56.5905C9.41512 68.5475 2.78372 86.0349 9.78211 98.632C12.718 103.906 17.7449 107.627 24.3166 109.386C27.0903 110.137 30.0604 110.495 33.1414 110.495C41.4455 110.495 50.5605 107.858 58.8562 102.882C68.1333 97.3262 75.0037 89.8413 78.8869 82.0151C82.7189 81.6054 85.7146 78.3879 85.7146 74.4534C85.7146 70.2373 82.2837 66.8064 78.0676 66.8064C73.8515 66.8064 70.4206 70.2373 70.4206 74.4534C70.4206 75.6312 70.7107 76.7407 71.1887 77.7393C68.0309 84.2426 62.1505 90.7204 54.3584 95.3888C44.9789 101.013 34.5922 103.096 26.5697 100.945C22.3451 99.8183 19.1787 97.5481 17.4206 94.3818C13.196 86.7859 17.4291 75.3752 26.7831 66.4906C25.8869 63.3414 25.2468 60.0299 24.8884 56.5905Z" fill="white"/>
</svg>
