<svg width="40" height="40" viewBox="0 0 40 40" fill="none" xmlns="http://www.w3.org/2000/svg">
<path d="M18.3318 17.0632C17.822 17.3576 17.4108 17.7965 17.1505 18.3245C16.8901 18.8525 16.7921 19.4459 16.869 20.0295C16.9458 20.6132 17.194 21.161 17.5822 21.6036C17.9704 22.0462 18.4811 22.3638 19.0497 22.5161C19.6184 22.6685 20.2195 22.6488 20.7769 22.4595C21.3344 22.2703 21.8232 21.92 22.1816 21.4529C22.5399 20.9858 22.7518 20.423 22.7902 19.8355C22.8287 19.2481 22.6921 18.6624 22.3977 18.1526C22.003 17.469 21.3529 16.9702 20.5904 16.7659C19.8279 16.5616 19.0154 16.6686 18.3318 17.0632ZM31.673 20.2927C31.4776 20.0693 31.2714 19.8454 31.0544 19.6209C31.2059 19.4616 31.3526 19.3024 31.4944 19.1434C34.1707 16.1363 35.3003 13.1206 34.2537 11.3075C33.25 9.56917 30.2646 9.05113 26.5271 9.77785C26.159 9.84987 25.7929 9.93112 25.4288 10.0216C25.3591 9.78132 25.285 9.54243 25.2064 9.30492C23.9385 5.48403 21.8903 2.99868 19.7969 3C17.7895 3.00092 15.8494 5.32848 14.6118 8.92917C14.49 9.28438 14.3774 9.64255 14.2739 10.0037C14.0304 9.94396 13.786 9.8888 13.5405 9.83818C9.5972 9.02855 6.42108 9.56178 5.37646 11.3759C4.37479 13.1154 5.42234 15.9589 7.92398 18.8294C8.17208 19.1134 8.4272 19.391 8.68935 19.6623C8.38031 19.9806 8.08768 20.2988 7.81493 20.6151C5.37393 23.4451 4.38628 26.2421 5.38633 27.9742C6.41914 29.7633 9.55056 30.3481 13.362 29.5981C13.6709 29.5369 13.9781 29.468 14.2835 29.3914C14.3954 29.7821 14.5182 30.1693 14.6518 30.5531C15.884 34.0815 17.8132 36.3341 19.8134 36.3334C21.8792 36.3322 23.95 33.912 25.2047 30.2355C25.3038 29.945 25.3976 29.6433 25.4865 29.3326C25.8811 29.4308 26.2782 29.5179 26.6779 29.5939C30.3501 30.2887 33.2654 29.7423 34.2636 28.0089C35.2944 26.2185 34.2316 23.2155 31.6729 20.2927H31.673ZM6.61044 12.0864C7.25354 10.9697 9.84918 10.5341 13.2539 11.2331C13.4715 11.2778 13.6928 11.3278 13.9179 11.3831C13.5855 12.8535 13.3509 14.3444 13.2158 15.8459C11.9873 16.7101 10.816 17.653 9.7093 18.6685C9.46546 18.4163 9.22814 18.1581 8.99733 17.8937L8.99743 17.8938C6.85398 15.4343 6.00679 13.1347 6.61044 12.0864ZM13.0882 21.6332C12.2373 20.9889 11.4465 20.3288 10.7287 19.6649C11.446 19.0051 12.2373 18.3472 13.0865 17.7046C13.056 18.3592 13.0408 19.0144 13.0411 19.67C13.0416 20.3246 13.0573 20.979 13.0882 21.6332ZM13.0872 28.2009C11.6426 28.5221 10.1513 28.5747 8.68768 28.3561C8.28646 28.3249 7.8959 28.2117 7.54015 28.0236C7.1844 27.8354 6.87101 27.5763 6.61934 27.2623C6.01256 26.2112 6.80561 23.9656 8.89321 21.5452C9.15567 21.2419 9.42673 20.9465 9.7064 20.659C10.8133 21.6799 11.9865 22.6264 13.2183 23.4925C13.3553 25.0131 13.5926 26.5231 13.9286 28.0124C13.6497 28.0822 13.3693 28.145 13.0872 28.2009ZM24.9224 14.802C24.3634 14.4497 23.7975 14.1088 23.2247 13.7792C22.6611 13.4548 22.0906 13.1425 21.5134 12.8424C22.5017 12.4269 23.4732 12.072 24.4111 11.7828C24.6322 12.7799 24.8029 13.7876 24.9224 14.802ZM15.9585 9.39202C17.0188 6.30678 18.5878 4.42447 19.7977 4.42395C21.0861 4.42333 22.7602 6.45438 23.8549 9.75333C23.926 9.96839 23.9932 10.1847 24.0565 10.4021C22.6184 10.8482 21.2113 11.3889 19.8446 12.0208C18.4836 11.3815 17.0809 10.8347 15.6463 10.3842C15.7422 10.051 15.8462 9.72025 15.9585 9.39202ZM15.2912 11.765C16.2695 12.073 17.2316 12.4301 18.174 12.835C17.0064 13.4376 15.8689 14.0939 14.7617 14.804C14.8955 13.7407 15.0735 12.7219 15.2912 11.765ZM14.7641 24.5328C15.3163 24.8863 15.8765 25.2267 16.4448 25.554C17.0246 25.8878 17.612 26.2075 18.2071 26.5133C17.2576 26.9322 16.2872 27.3021 15.2997 27.6215C15.0795 26.6513 14.8995 25.6146 14.7641 24.5328ZM23.8569 29.7753C23.4136 31.1872 22.7141 32.5054 21.7935 33.6641L21.7934 33.6642C21.5659 33.9961 21.2727 34.2778 20.932 34.4919C20.5914 34.7061 20.2104 34.8481 19.8127 34.9092C18.599 34.9099 17.0499 33.1008 15.9961 30.0834C15.872 29.7267 15.7579 29.3667 15.6536 29.0034C17.0951 28.5384 18.5035 27.9761 19.8689 27.3206C21.2469 27.9565 22.6652 28.5013 24.1145 28.9514C24.0354 29.2281 23.9495 29.5027 23.8569 29.7753ZM24.4607 27.5683C23.512 27.275 22.5264 26.9141 21.5238 26.4924C22.089 26.195 22.6583 25.8809 23.2316 25.5501C23.82 25.2103 24.3934 24.862 24.9518 24.5052C24.8406 25.534 24.6767 26.5564 24.4607 27.5683V27.5683ZM25.2045 19.6638C25.2057 20.676 25.1741 21.6873 25.1097 22.6979C24.2886 23.2536 23.4217 23.7962 22.5197 24.3169C21.6215 24.8355 20.7315 25.3121 19.8585 25.7434C18.9398 25.3032 18.0388 24.8287 17.1555 24.3201C16.2772 23.8145 15.4191 23.2762 14.5811 22.7051C14.5045 21.6949 14.4659 20.6828 14.4653 19.6689L14.4655 19.6692C14.4648 18.656 14.5025 17.6439 14.5787 16.6328C15.3996 16.0722 16.2602 15.53 17.15 15.0163C18.0439 14.5001 18.945 14.0256 19.8412 13.5955C20.7486 14.0365 21.6396 14.5091 22.5142 15.0133C23.3919 15.5177 24.2525 16.0503 25.0959 16.611C25.1683 17.6271 25.2046 18.6447 25.2046 19.6638H25.2045ZM26.799 11.1758C30.0013 10.5529 32.4157 10.9719 33.0206 12.0195C33.6649 13.1355 32.7414 15.6003 30.4308 18.1967L30.4307 18.1968C30.3031 18.3401 30.1706 18.4839 30.0334 18.6284C28.9075 17.6106 27.7137 16.6708 26.4601 15.8153C26.3336 14.3302 26.1079 12.8553 25.7844 11.4004C26.1292 11.3155 26.4674 11.2407 26.799 11.1758ZM26.5826 17.6503C27.4281 18.2676 28.2411 18.9284 29.0182 19.63C28.2445 20.3431 27.4341 21.0153 26.5903 21.6438C26.6161 20.9839 26.6289 20.3237 26.6284 19.6632C26.6281 18.992 26.6129 18.3211 26.5826 17.6503ZM33.0294 27.2982C32.4236 28.3501 30.0829 28.7888 26.9424 28.1946C26.5825 28.1267 26.2132 28.0458 25.8345 27.952C26.1502 26.4784 26.3659 24.9851 26.4802 23.4824C27.7317 22.6119 28.9218 21.6564 30.042 20.6226C30.2381 20.8262 30.4245 21.0289 30.6014 21.2307V21.2306C31.6032 22.3198 32.3959 23.5842 32.9399 24.9604C33.1139 25.3233 33.2116 25.718 33.227 26.12C33.2423 26.5221 33.1751 26.9231 33.0294 27.2982Z" fill="black"/>
</svg>
