<svg width="120" height="120" viewBox="0 0 120 120" fill="none" xmlns="http://www.w3.org/2000/svg">
<path d="M55.9954 52.1897C54.4659 53.0727 53.2325 54.3895 52.4514 55.9735C51.6703 57.5575 51.3764 59.3376 51.6069 61.0886C51.8375 62.8396 52.5821 64.483 53.7466 65.8108C54.9111 67.1386 56.4432 68.0913 58.1492 68.5484C59.8552 69.0055 61.6584 68.9464 63.3308 68.3786C65.0032 67.8109 66.4696 66.76 67.5447 65.3587C68.6198 63.9575 69.2553 62.269 69.3707 60.5066C69.4861 58.7442 69.0764 56.9872 68.1932 55.4577C67.009 53.407 65.0586 51.9106 62.7711 51.2977C60.4836 50.6848 58.0463 51.0057 55.9954 52.1897ZM96.0189 61.8781C95.4326 61.2081 94.814 60.5363 94.1631 59.8627C94.6178 59.3848 95.0578 58.9073 95.4831 58.4302C103.512 49.4088 106.901 40.3617 103.761 34.9225C100.75 29.7075 91.7938 28.1534 80.5813 30.3336C79.4769 30.5496 78.3786 30.7934 77.2863 31.0648C77.0773 30.344 76.8549 29.6273 76.6192 28.9148C72.8154 17.4521 66.6709 9.99605 60.3907 10C54.3686 10.0028 48.5483 16.9855 44.8354 27.7875C44.4701 28.8531 44.1321 29.9277 43.8216 31.0111C43.0913 30.8319 42.358 30.6664 41.6216 30.5146C29.7916 28.0857 20.2632 29.6854 17.1294 35.1276C14.1244 40.3464 17.267 48.8766 24.7719 57.4881C25.5162 58.3402 26.2816 59.1731 27.068 59.9869C26.1409 60.9419 25.263 61.8964 24.4448 62.8455C17.1218 71.3354 14.1588 79.7263 17.159 84.9225C20.2574 90.2899 29.6517 92.0443 41.086 89.7943C42.0127 89.6106 42.9342 89.4039 43.8506 89.1743C44.1863 90.3462 44.5545 91.5078 44.9553 92.6593C48.6519 103.245 54.4396 110.002 60.4403 110C66.6375 109.997 72.85 102.736 76.614 91.7066C76.9113 90.835 77.1927 89.9298 77.4594 88.9978C78.6432 89.2923 79.8346 89.5536 81.0336 89.7818C92.0504 91.8661 100.796 90.2268 103.791 85.0268C106.883 79.6554 103.695 70.6467 96.0187 61.8781H96.0189ZM20.8313 37.2592C22.7606 33.9092 30.5475 32.6023 40.7617 34.6992C41.4145 34.8334 42.0785 34.9834 42.7536 35.1492C41.7564 39.5605 41.0528 44.0331 40.6473 48.5376C36.9618 51.1303 33.448 53.9589 30.1279 57.0055C29.3964 56.2491 28.6844 55.4742 27.992 54.681L27.9923 54.6814C21.5619 47.3028 19.0204 40.4041 20.8313 37.2592ZM40.2646 65.8997C37.7118 63.9666 35.3394 61.9864 33.1861 59.9947C35.3379 58.0153 37.7118 56.0417 40.2594 54.1139C40.1679 56.0777 40.1225 58.0431 40.1233 60.0099C40.1247 61.9739 40.1718 63.9371 40.2646 65.8997ZM40.2616 85.6027C35.9279 86.5663 31.4539 86.7242 27.063 86.0684C25.8594 85.9747 24.6877 85.6351 23.6204 85.0707C22.5532 84.5063 21.613 83.729 20.858 82.7868C19.0377 79.6335 21.4168 72.8969 27.6796 65.6357C28.467 64.7257 29.2802 63.8395 30.1192 62.977C33.4398 66.0396 36.9594 68.8793 40.6548 71.4774C41.0658 76.0393 41.7777 80.5692 42.7858 85.0373C41.9492 85.2465 41.1078 85.435 40.2616 85.6027ZM75.7672 45.4059C74.0903 44.3492 72.3926 43.3265 70.6742 42.3377C68.9832 41.3643 67.2718 40.4275 65.5402 39.5273C68.5052 38.2807 71.4197 37.2159 74.2334 36.3483C74.8967 39.3397 75.4086 42.3628 75.7672 45.4059ZM48.8754 29.1761C52.0565 19.9204 56.7635 14.2734 60.393 14.2719C64.2584 14.27 69.2806 20.3632 72.5646 30.26C72.778 30.9052 72.9796 31.554 73.1696 32.2064C68.8552 33.5446 64.634 35.1668 60.5338 37.0624C56.4507 35.1445 52.2428 33.5042 47.9388 32.1527C48.2265 31.153 48.5387 30.1608 48.8754 29.1761ZM46.8735 36.295C49.8084 37.219 52.6949 38.2903 55.5219 39.505C52.0191 41.3127 48.6068 43.2817 45.2851 45.412C45.6864 42.222 46.2204 39.1657 46.8735 36.295ZM45.2924 74.5984C46.9489 75.6588 48.6296 76.68 50.3345 77.662C52.0737 78.6633 53.836 79.6226 55.6214 80.5398C52.7728 81.7966 49.8615 82.9062 46.8991 83.8644C46.2384 80.954 45.6986 77.8439 45.2924 74.5984ZM72.5708 90.3259C71.2406 94.5616 69.1422 98.5162 66.3804 101.992L66.3801 101.993C65.6976 102.988 64.8181 103.833 63.7961 104.476C62.7741 105.118 61.6312 105.544 60.438 105.728C56.797 105.73 52.1497 100.302 48.9884 91.2502C48.6161 90.18 48.2736 89.1 47.9609 88.0103C52.2854 86.6151 56.5104 84.9284 60.6068 82.9617C64.7407 84.8696 68.9955 86.504 73.3436 87.8543C73.1062 88.6842 72.8486 89.5081 72.5708 90.3259ZM74.382 83.7048C71.536 82.8249 68.5791 81.7423 65.5713 80.4773C67.2669 79.585 68.9748 78.6426 70.6949 77.6502C72.4601 76.6309 74.1803 75.586 75.8554 74.5157C75.5218 77.602 75.03 80.6691 74.382 83.705V83.7048ZM76.6135 59.9915C76.6172 63.028 76.5224 66.062 76.3291 69.0937C73.8657 70.7608 71.265 72.3887 68.5591 73.9508C65.8644 75.5066 63.1944 76.9363 60.5754 78.2303C57.8193 76.9095 55.1164 75.4862 52.4666 73.9603C49.8317 72.4436 47.2572 70.8286 44.7432 69.1153C44.5134 66.0846 44.3976 63.0484 44.3959 60.0067L44.3965 60.0076C44.3944 56.9681 44.5076 53.9317 44.7362 50.8985C47.1989 49.2166 49.7807 47.59 52.4501 46.0489C55.1317 44.5005 57.8351 43.0768 60.5235 41.7865C63.2457 43.1094 65.9187 44.5272 68.5426 46.0397C71.1757 47.5531 73.7574 49.1509 76.2876 50.8331C76.5049 53.8812 76.6137 56.934 76.6138 59.9915H76.6135ZM81.3971 34.5273C91.0038 32.6587 98.2471 33.9157 100.062 37.0584C101.995 40.4065 99.2243 47.8009 92.2925 55.5902L92.2922 55.5905C91.9092 56.0202 91.5119 56.4517 91.1002 56.8851C87.7226 53.8319 84.141 51.0123 80.3804 48.4458C80.0009 43.9906 79.3236 39.5658 78.3531 35.2011C79.3875 34.9466 80.4022 34.722 81.3971 34.5273ZM80.7477 53.9508C83.2844 55.8029 85.7233 57.7853 88.0545 59.89C85.7336 62.0294 83.3024 64.046 80.7709 65.9315C80.8484 63.9519 80.8866 61.9712 80.8853 59.9895C80.8844 57.9761 80.8386 55.9632 80.7477 53.9508ZM100.088 82.8946C98.2709 86.0504 91.2488 87.3663 81.8271 85.5838C80.7474 85.38 79.6395 85.1373 78.5034 84.8559C79.4505 80.4351 80.0978 75.9553 80.4407 71.4471C84.1951 68.8358 87.7653 65.9692 91.1261 62.8678C91.7142 63.4787 92.2736 64.0868 92.8043 64.6921V64.6917C95.8096 67.9595 98.1877 71.7526 99.8197 75.8813C100.342 76.9699 100.635 78.1539 100.681 79.3601C100.727 80.5664 100.525 81.7694 100.088 82.8946Z" fill="white"/>
</svg>
