<svg width="120" height="120" viewBox="0 0 120 120" fill="none" xmlns="http://www.w3.org/2000/svg">
<path d="M18.3337 59.9982C18.331 75.9647 27.4521 90.5286 41.8176 97.4967L21.9409 43.0417C19.5581 48.3768 18.3292 54.155 18.3337 59.9982ZM60.7324 63.6429L48.2288 99.9689C56.6232 102.441 65.5826 102.208 73.8372 99.3042C73.7213 99.1217 73.6215 98.9298 73.5388 98.7299L60.7324 63.6429ZM88.1287 57.897C88.0728 53.822 86.8836 49.8432 84.6936 46.4062C82.4542 43.5886 81.0376 40.2063 80.6006 36.6336C80.4996 32.663 83.6273 29.3573 87.5976 29.2389C87.7826 29.2389 87.9577 29.2612 88.1372 29.2724C71.1722 13.7323 44.8218 14.8877 29.2819 31.8525C27.7783 33.4937 26.409 35.2527 25.1868 37.1128C26.1646 37.1439 27.0862 37.1634 27.868 37.1634C32.2253 37.1634 38.9734 36.6333 38.9734 36.6333C39.9231 36.5784 40.7376 37.3038 40.7926 38.2535C40.846 39.1769 40.1602 39.9777 39.2395 40.0671C39.2395 40.0671 36.9812 40.3314 34.4715 40.4629L49.6436 85.5954L58.7634 58.2489L52.2717 40.4632C50.0269 40.3317 47.9016 40.0674 47.9016 40.0674C46.955 39.9759 46.2616 39.1342 46.3528 38.1876C46.4419 37.2662 47.243 36.5802 48.1668 36.6336C48.1668 36.6336 55.0461 37.1637 59.1397 37.1637C63.497 37.1637 70.2462 36.6336 70.2462 36.6336C71.1956 36.5781 72.0108 37.3028 72.0663 38.2522C72.1203 39.1769 71.4337 39.9789 70.5117 40.0674C70.5117 40.0674 68.2516 40.3317 65.7437 40.4632L80.801 85.252L85.0992 71.6318C86.7777 67.2272 87.7985 62.5992 88.1287 57.897ZM96.8439 44.2938C96.7715 49.4275 95.6948 54.4977 93.6743 59.2175L80.9484 96.012C100.467 84.6582 107.391 59.8248 96.5634 40.0098C96.7529 41.4297 96.8466 42.861 96.8439 44.2938ZM60 10C32.3858 10 10 32.3858 10 60C10 87.6142 32.3858 110 60 110C87.6142 110 110 87.6142 110 60C110 32.3858 87.6142 10 60 10ZM78.2934 103.307C63.6612 109.5 46.8894 107.87 33.7238 98.9749C26.1664 93.8726 20.2506 86.6889 16.6919 78.2934C10.4981 63.6612 12.1289 46.8887 21.0254 33.7238C26.1267 26.1658 33.3105 20.2493 41.7065 16.6922C56.3388 10.4999 73.1107 12.1302 86.2763 21.0248C93.8336 26.1271 99.7494 33.3108 103.308 41.7062C109.502 56.3385 107.871 73.111 98.9746 86.2759C93.8733 93.8339 86.6895 99.7504 78.2934 103.307Z" fill="white"/>
</svg>
