<svg width="40" height="40" viewBox="0 0 40 40" fill="none" xmlns="http://www.w3.org/2000/svg">
<path d="M6.11126 19.9996C6.11034 25.3217 9.15071 30.1764 13.9392 32.499L7.31364 14.3474C6.51938 16.1258 6.10973 18.0518 6.11126 19.9996ZM20.2441 21.2145L16.0763 33.3231C18.8744 34.1471 21.8609 34.0696 24.6124 33.1016C24.5738 33.0407 24.5405 32.9768 24.5129 32.9101L20.2441 21.2145ZM29.3762 19.2992C29.3576 17.9408 28.9612 16.6145 28.2312 15.4689C27.4847 14.5297 27.0125 13.4023 26.8669 12.2114C26.8332 10.8878 27.8758 9.78593 29.1992 9.74646C29.2609 9.74646 29.3193 9.7539 29.3791 9.75765C23.7241 4.5776 14.9406 4.96273 9.76064 10.6176C9.25944 11.1647 8.80301 11.7511 8.39559 12.3711C8.72153 12.3814 9.02874 12.388 9.28936 12.388C10.7418 12.388 12.9911 12.2113 12.9911 12.2113C13.3077 12.193 13.5792 12.4348 13.5975 12.7513C13.6153 13.0591 13.3867 13.3261 13.0798 13.3559C13.0798 13.3559 12.3271 13.444 11.4905 13.4878L16.5479 28.532L19.5878 19.4165L17.4239 13.4879C16.6756 13.4441 15.9672 13.356 15.9672 13.356C15.6517 13.3255 15.4205 13.0449 15.451 12.7293C15.4807 12.4222 15.7477 12.1936 16.0556 12.2114C16.0556 12.2114 18.3487 12.3881 19.7132 12.3881C21.1657 12.3881 23.4154 12.2114 23.4154 12.2114C23.7319 12.1928 24.0036 12.4344 24.0221 12.7509C24.0401 13.0591 23.8112 13.3265 23.5039 13.356C23.5039 13.356 22.7505 13.4441 21.9146 13.4879L26.9337 28.4175L28.3664 23.8774C28.9259 22.4092 29.2662 20.8666 29.3762 19.2992ZM32.2813 14.7648C32.2572 16.476 31.8983 18.1661 31.2248 19.7393L26.9828 32.0042C33.4889 28.2196 35.7969 19.9418 32.1878 13.3368C32.251 13.8101 32.2822 14.2872 32.2813 14.7648ZM20 3.3335C10.7953 3.3335 3.33334 10.7954 3.33334 20.0002C3.33334 29.2049 10.7953 36.6668 20 36.6668C29.2047 36.6668 36.6667 29.2049 36.6667 20.0002C36.6667 10.7954 29.2047 3.3335 20 3.3335ZM26.0978 34.436C21.2204 36.5001 15.6298 35.9567 11.2413 32.9918C8.72214 31.291 6.75019 28.8964 5.56398 26.098C3.49936 21.2206 4.04298 15.6297 7.00848 11.2414C8.70891 8.72208 11.1035 6.74993 13.9022 5.56423C18.7796 3.50013 24.3702 4.04355 28.7588 7.00843C31.2779 8.70918 33.2498 11.1038 34.436 13.9022C36.5007 18.7797 35.957 24.3705 32.9915 28.7588C31.2911 31.2781 28.8965 33.2503 26.0978 34.436Z" fill="black"/>
</svg>
