<svg width="120" height="120" viewBox="0 0 120 120" fill="none" xmlns="http://www.w3.org/2000/svg">
<path d="M110 60C110 87.6123 87.6123 110 60 110C32.3877 110 10 87.6123 10 60C10 32.3877 32.3877 10 60 10C87.6123 10 110 32.3877 110 60Z" fill="white"/>
<path d="M60 10C32.5 10 10 32.5 10 60C10 87.5 32.5 110 60 110C87.5 110 110 87.5 110 60C110 32.5 87.5 10 60 10ZM32.1387 87.8613C24.6387 80.3613 20.7129 70.3613 20.7129 60.7178L59.6387 99.2871C49.6387 98.9258 39.6387 95.3564 32.1387 87.8613ZM68.5693 98.2178L21.7871 51.4258C25.7129 33.9258 41.4258 20.7129 60 20.7129C73.2129 20.7129 84.6387 27.1387 91.7871 36.7871L86.4258 41.4258C80.3564 33.2129 70.7129 27.8564 59.9951 27.8564C46.0693 27.8564 34.2822 36.7871 29.6387 49.2871L70.708 90.3564C81.0693 86.7871 88.9258 77.8564 91.4258 67.1436H74.2871V60H99.2871C99.2871 78.5742 86.0693 94.2871 68.5693 98.2129V98.2178Z" fill="black"/>
</svg>
