<svg width="120" height="120" viewBox="0 0 120 120" fill="none" xmlns="http://www.w3.org/2000/svg">
<path d="M81.07 33.8098L80.695 35.7648C80.115 39.4698 80.325 40.5298 81.915 41.9048L83.45 43.1748L81.86 50.2648C80.91 54.4948 79.745 58.0398 79.005 59.2048C78.37 60.2098 77.63 61.6898 77.47 62.4848C77.205 63.4348 76.305 64.3898 74.93 65.2348C73.715 65.9248 71.33 67.7748 69.64 69.2598C68.29 70.4748 67.36 71.2198 66.855 71.5398L65.205 72.8448C64.675 73.6948 64.375 74.3798 64.26 74.8998C64.145 75.4348 64.21 75.7898 64.38 76.0498C64.545 76.2998 64.83 76.4748 65.22 76.5848C65.6817 76.693 66.1569 76.7318 66.63 76.6998C67.7003 76.6267 68.7597 76.4389 69.79 76.1398C70.14 76.0448 70.415 75.9548 70.655 75.8748C71.025 75.4198 71.88 74.5598 73.395 73.0648C77.415 69.0998 78.95 66.9298 77.365 67.5148C76.78 67.7248 77.045 67.1948 78.05 66.1348C80.17 64.0698 81.385 60.9498 83.925 51.1648C85.935 43.4398 85.935 43.3298 87.415 43.3298C88.11 43.3298 90.075 43.4498 90.075 43.4498V33.8098H85.565H81.07ZM100.265 49.6348C99.945 49.6348 99.415 50.1148 99.1 50.6448C98.52 51.5948 99.205 52.1748 107.935 57.6248C113.12 60.9098 117.3 63.7098 117.195 63.9248C117.09 64.0798 112.855 66.8348 107.78 70.0098C98.57 75.7198 98.52 75.7748 99.365 76.9398C100.425 78.3148 99.365 78.7898 111.32 71.3298L120 65.7748V61.5948L110.315 55.6148C105.08 52.3348 100.53 49.6898 100.265 49.6348ZM19.84 50.2198C19.575 50.2198 15.025 52.9198 9.79 56.1448L0 62.1248V66.3048L9.735 72.3898C15.135 75.7198 19.685 78.4748 19.895 78.4748C20.105 78.4748 20.53 77.9948 20.955 77.4148C21.59 76.4098 21.055 75.9848 12.115 70.3248C3.6 64.9798 2.7 64.2398 3.55 63.6598C4.08 63.2898 8.1 60.7998 12.44 58.1048C22.335 52.0198 21.805 52.4398 21.01 51.1698C20.695 50.6448 20.16 50.1698 19.845 50.2198H19.84ZM63.26 50.3348C61.8 50.3248 58.66 52.5498 49.26 60.2248C48.855 61.1898 48.82 61.8548 49.005 62.2848C49.125 62.5798 49.345 62.7848 49.65 62.9348C49.95 63.0848 50.34 63.1748 50.77 63.2098C51.625 63.2848 52.635 63.1498 53.45 62.9898L54 62.8648C54.1883 62.6123 54.4355 62.4098 54.72 62.2748C55.3 61.9548 57.735 59.7348 60.17 57.3548C64.455 53.0148 65.46 51.0548 63.715 50.4198C63.5718 50.3629 63.4191 50.334 63.265 50.3348H63.26ZM74.24 53.3498C72.955 53.3848 70.64 54.8748 66.675 58.0398C64.685 59.6548 63.425 60.5248 62.75 60.7048L60.13 62.7748C59.145 64.5748 59 65.6898 59.26 66.3048C59.3251 66.4565 59.4196 66.5938 59.538 66.7088C59.6564 66.8238 59.7964 66.9142 59.95 66.9748C60.332 67.1257 60.7393 67.202 61.15 67.1998C62.1314 67.1894 63.1069 67.0464 64.05 66.7748C64.5415 66.6429 65.027 66.4894 65.505 66.3148L65.65 66.2548L65.915 66.1148C66.415 65.4698 67.565 64.2548 69.005 62.8548C73.555 58.4648 75.88 55.3448 75.405 54.1798C75.19 53.6148 74.82 53.3298 74.24 53.3498V53.3498ZM62.12 58.7498C61.75 58.7898 60.92 59.4298 59.425 60.7398C57.265 62.6498 54.91 63.7498 54.095 63.2598C53.9056 63.3026 53.7156 63.3426 53.525 63.3798C52.695 63.5448 51.66 63.6798 50.735 63.6048C50.2992 63.5784 49.872 63.4716 49.475 63.2898C49.1006 63.1186 48.8018 62.8163 48.635 62.4398C48.45 61.9898 48.45 61.4298 48.66 60.7148L45.41 63.3848L38.055 69.4698V79.3348L62.155 60.3498C62.1503 60.1419 62.1773 59.9346 62.235 59.7348C62.42 59.0648 62.41 58.7248 62.12 58.7548V58.7498ZM72.49 61.9448C72.125 61.9448 71.515 62.4598 70.54 63.4948C69.215 64.9098 67.13 66.2798 66.025 66.5598L65.855 66.6498C65.6736 66.7247 65.4902 66.7948 65.305 66.8598C65.005 66.9598 64.615 67.0798 64.165 67.1998C63.265 67.4448 62.145 67.6698 61.145 67.6448C60.6736 67.6442 60.2067 67.5525 59.77 67.3748C59.3584 67.2052 59.0286 66.8826 58.85 66.4748C58.56 65.7798 58.675 64.8048 59.31 63.4198L38.05 80.1648V86.1898H47.39L67.2 70.6298C67.715 70.0598 68.49 69.2798 69.535 68.3048C72.335 65.7098 72.97 64.8148 72.97 63.4898C72.97 62.4598 72.855 61.9398 72.49 61.9398V61.9448ZM77.205 71.6948L75.51 73.3848C74.56 74.2848 72.865 75.3948 71.705 75.8698L71.475 75.9698L71.46 75.9948L71.41 76.0448C71.365 76.0798 71.345 76.0848 71.31 76.0998C70.8469 76.2751 70.3765 76.4302 69.9 76.5648C68.8406 76.8732 67.7509 77.066 66.65 77.1398C66.1295 77.1732 65.6069 77.1277 65.1 77.0048C64.6601 76.908 64.2717 76.6514 64.01 76.2848C63.77 75.9148 63.7 75.4198 63.835 74.8098C63.9424 74.3755 64.1019 73.9558 64.31 73.5598L48.325 86.1898H69.585L72.125 83.2798C75.615 79.2098 77.205 76.2998 77.205 73.8098V71.6948Z" fill="white"/>
</svg>
