<svg width="120" height="120" viewBox="0 0 120 120" fill="none" xmlns="http://www.w3.org/2000/svg">
<path d="M102.857 15H17.1429C15.9584 15 15 15.9584 15 17.1429V102.857C15 104.042 15.9584 105 17.1429 105H102.857C104.042 105 105 104.042 105 102.857V17.1429C105 15.9584 104.042 15 102.857 15ZM68.5714 63.0971H57.8571V96.4286H49.2857V63.0971H38.5714V55.7143H68.5714V63.0971ZM70.9738 94.5243V85.6138C70.9738 85.6138 75.8412 89.2843 81.6797 89.2843C87.5181 89.2843 87.2921 85.4674 87.2921 84.9442C87.2921 79.4029 70.7478 79.4029 70.7478 67.1233C70.7478 50.4283 94.8549 57.0159 94.8549 57.0159L94.5578 64.9554C94.5578 64.9554 90.5106 62.26 85.9445 62.26C81.3783 62.26 79.7294 64.428 79.7294 66.7508C79.7294 72.74 96.4244 72.1415 96.4244 84.195C96.4286 102.761 70.9738 94.5243 70.9738 94.5243Z" fill="white"/>
</svg>
