<svg width="40" height="40" viewBox="0 0 40 40" fill="none" xmlns="http://www.w3.org/2000/svg">
<path d="M32.9382 22.4889C31.6807 22.4944 30.5917 22.7976 29.6823 23.2468C29.351 22.5786 29.0085 21.9948 28.9524 21.557C28.8852 21.0461 28.8121 20.743 28.8907 20.1368C28.9694 19.5304 29.3229 18.6715 29.3174 18.6098C29.3118 18.5481 29.2388 18.2393 28.5146 18.2337C27.7905 18.2281 27.1675 18.374 27.0944 18.5648C27.0213 18.7557 26.8811 19.188 26.7969 19.6371C26.6678 20.2939 25.3485 22.6405 24.6018 23.8642C24.3549 23.3872 24.1472 22.966 24.1022 22.6292C24.0349 22.1183 23.9619 21.8152 24.0405 21.209C24.1191 20.6026 24.4727 19.7437 24.4671 19.682C24.4614 19.6203 24.3885 19.3115 23.6644 19.3058C22.9402 19.3003 22.3172 19.4462 22.2441 19.6371C22.1711 19.8279 22.0925 20.277 21.9466 20.7094C21.8007 21.1415 20.0435 25.0486 19.5832 26.0647C19.3474 26.5811 19.1454 26.9965 18.9994 27.2773C18.9771 27.3222 18.9602 27.3503 18.9489 27.3728C18.9657 27.3447 18.9771 27.3165 18.9771 27.328C18.8535 27.5692 18.7805 27.704 18.7805 27.704V27.7095C18.685 27.8891 18.5784 28.0519 18.5279 28.0519C18.4942 28.0519 18.4213 27.5805 18.5448 26.9348C18.8085 25.5763 19.4317 23.4658 19.426 23.3926C19.4204 23.3533 19.5439 22.9885 19.0162 22.7919C18.5054 22.6067 18.3201 22.9155 18.2753 22.9155C18.2304 22.9155 18.1967 23.0279 18.1967 23.0279C18.1967 23.0279 18.7637 20.6476 17.1076 20.6476C16.0747 20.6476 14.6377 21.7817 13.9304 22.809C13.4869 23.0504 12.5269 23.5724 11.5165 24.1281C11.1292 24.3415 10.7306 24.5603 10.3545 24.7681C10.3264 24.7399 10.3039 24.7119 10.2759 24.6838C8.2662 22.5395 4.55558 21.0238 4.71284 18.1439C4.76894 17.0941 5.13386 14.338 11.8478 10.9922C17.3492 8.25272 21.7502 9.00498 22.5082 10.6778C23.5971 13.0637 20.1559 17.504 14.4413 18.1439C12.2632 18.3853 11.1181 17.5433 10.8317 17.229C10.5342 16.8978 10.4893 16.8808 10.377 16.9426C10.1917 17.0437 10.3096 17.3356 10.377 17.5096C10.5454 17.953 11.2471 18.739 12.4428 19.1319C13.4925 19.4744 16.0468 19.6653 19.1342 18.4695C22.6034 17.1334 25.3036 13.4115 24.5121 10.2961C23.7038 7.13006 18.455 6.09147 13.487 7.85412C10.5286 8.90389 7.32886 10.5544 5.02722 12.7043C2.29339 15.2642 1.85558 17.4927 2.03511 18.4247C2.67511 21.731 7.23331 23.8867 9.05777 25.4809C8.96792 25.5315 8.8837 25.5764 8.80519 25.6213C7.89019 26.0759 4.41534 27.8947 3.54519 29.8148C2.56292 31.9929 3.70792 33.5533 4.46019 33.7668C6.80667 34.4179 9.20933 33.2447 10.5005 31.3191C11.7915 29.3937 11.6344 26.8788 11.0394 25.7336C11.0337 25.7168 11.0225 25.7057 11.017 25.6887C11.2527 25.5484 11.494 25.408 11.7355 25.2677C12.2014 24.9926 12.6561 24.7399 13.0546 24.5212C12.83 25.1275 12.6673 25.8569 12.5831 26.9125C12.4821 28.1474 12.9929 29.7473 13.6553 30.3761C13.9471 30.6512 14.3008 30.6569 14.5198 30.6569C15.2945 30.6569 15.6425 30.0168 16.0298 29.2533C16.507 28.3213 16.928 27.2379 16.928 27.2379C16.928 27.2379 16.4003 30.1684 17.843 30.1684C18.3707 30.1684 18.8985 29.4891 19.1341 29.1411V29.1466C19.1341 29.1466 19.1454 29.1243 19.1735 29.0794C19.2296 28.9951 19.2576 28.9446 19.2576 28.9446V28.9276C19.4709 28.5628 19.9369 27.7263 20.6385 26.3455C21.548 24.5602 22.418 22.3315 22.418 22.3315C22.418 22.3315 22.4966 22.8762 22.7662 23.78C22.9233 24.3133 23.2545 24.8971 23.5183 25.4641C23.3051 25.756 23.1759 25.9244 23.1759 25.9244C23.1759 25.9244 23.1759 25.93 23.1814 25.9356C23.013 26.1603 22.8222 26.4017 22.6257 26.6375C21.9071 27.4907 21.0539 28.4676 20.9417 28.7482C20.8068 29.0794 20.8406 29.3262 21.0989 29.5173C21.2896 29.6633 21.6265 29.6856 21.9801 29.6576C22.6257 29.6126 23.0804 29.4555 23.2993 29.3543C23.6473 29.231 24.0516 29.0344 24.4333 28.7594C25.135 28.243 25.5618 27.502 25.5223 26.5252C25.4999 25.9863 25.3257 25.4473 25.1125 24.9422C25.1743 24.8523 25.2417 24.7568 25.3034 24.6615C26.415 23.039 27.2739 21.2597 27.2739 21.2597C27.2739 21.2597 27.3525 21.804 27.6218 22.7079C27.7566 23.1626 28.0204 23.6623 28.2618 24.1505C27.2176 24.9983 26.5721 25.9808 26.3475 26.6262C25.9321 27.8219 26.2577 28.3607 26.8696 28.4844C27.1446 28.5405 27.5376 28.4113 27.8296 28.2878C28.1944 28.1643 28.6323 27.9678 29.0421 27.6647C29.7438 27.1483 30.4231 26.424 30.3782 25.4417C30.3613 24.9982 30.2378 24.5547 30.075 24.1281C30.9563 23.7577 32.1017 23.5555 33.5611 23.724C36.6879 24.0888 37.2997 26.0423 37.1818 26.8562C37.0641 27.6759 36.4073 28.1251 36.1883 28.2597C35.9693 28.3945 35.902 28.4451 35.9189 28.5461C35.9469 28.692 36.0479 28.6865 36.2332 28.6526C36.4915 28.6078 37.8724 27.9902 37.934 26.4801C38.024 24.5715 36.1885 22.4721 32.9382 22.4889ZM8.83886 30.6118C7.80605 31.7401 6.35769 32.1668 5.73464 31.8075C5.06659 31.4203 5.33042 29.7586 6.60472 28.5572C7.37941 27.8275 8.37862 27.1539 9.04105 26.7385C9.19261 26.6487 9.41159 26.514 9.68105 26.3512C9.72597 26.3233 9.74839 26.3119 9.74839 26.3119C9.79886 26.2781 9.85503 26.2501 9.9112 26.2164C10.377 27.923 9.92792 29.4273 8.83886 30.6118ZM16.3836 25.4809C16.0243 26.3622 15.2664 28.6077 14.8063 28.4898C14.4133 28.3887 14.1718 26.6766 14.7277 24.9926C15.0083 24.1449 15.6033 23.1345 15.9571 22.7416C16.5239 22.1072 17.1471 21.9051 17.2931 22.1577C17.4895 22.4889 16.6081 24.9308 16.3836 25.4809ZM22.6146 28.4563C22.4632 28.5348 22.3228 28.5853 22.2554 28.546C22.205 28.518 22.3172 28.4112 22.3172 28.4112C22.3172 28.4112 23.0974 27.5748 23.4062 27.193C23.5858 26.9685 23.7935 26.7046 24.0181 26.4128C24.0181 26.4407 24.0235 26.469 24.0235 26.5025C24.0182 27.5075 23.0526 28.1869 22.6146 28.4563ZM27.42 27.3615C27.3078 27.283 27.3245 27.0191 27.7007 26.1994C27.8467 25.8794 28.1835 25.3406 28.7672 24.8241C28.8346 25.0374 28.8739 25.2394 28.8739 25.4303C28.8682 26.6934 27.9645 27.165 27.42 27.3615Z" fill="black"/>
</svg>
