<svg width="120" height="120" viewBox="0 0 120 120" fill="none" xmlns="http://www.w3.org/2000/svg">
<path d="M15 15H105V105H15V15ZM38.65 90.2C40.65 94.45 44.6 97.95 51.35 97.95C58.85 97.95 64 93.95 64 85.2V56.3H55.5V85C55.5 89.3 53.75 90.4 51 90.4C48.1 90.4 46.9 88.4 45.55 86.05L38.65 90.2ZM68.55 89.3C71.05 94.2 76.1 97.95 84 97.95C92 97.95 98 93.8 98 86.15C98 79.1 93.95 75.95 86.75 72.85L84.65 71.95C81 70.4 79.45 69.35 79.45 66.85C79.45 64.8 81 63.2 83.5 63.2C85.9 63.2 87.5 64.25 88.95 66.85L95.5 62.5C92.75 57.7 88.85 55.85 83.5 55.85C75.95 55.85 71.1 60.65 71.1 67C71.1 73.9 75.15 77.15 81.25 79.75L83.35 80.65C87.25 82.35 89.55 83.4 89.55 86.3C89.55 88.7 87.3 90.45 83.8 90.45C79.65 90.45 77.25 88.3 75.45 85.3L68.55 89.3Z" fill="white"/>
</svg>
